# xmcd
#
# Track frame offsets: 
#        182
#        20727
#        41210
#        59192
#        81065
#        105487
#        122725
#        143147
#        165952
#        187562
#
# Disc length: 2842 seconds
#
# Revision: 5
# Processed by: cddbd v1.5.2PL0 Copyright (c) Steve Scherf et al.
# Submitted via: ExactAudioCopy v1.0b3
#
DISCID=7f0b180a
DTITLE=Marva Hicks - Marva Hicks
DYEAR=1991
DGENRE=R&B
TTITLE0=Never Been In Love Before
TTITLE1=Searchin' For The Love
TTITLE2=I Got You Where I Want
TTITLE3=Never Say Never
TTITLE4=One Good Reason
TTITLE5=Strong Is Our Love
TTITLE6=What Is Love
TTITLE7=In Love With Love
TTITLE8=Conviction
TTITLE9=Life Without You
EXTD=YEAR: 1991 ID3G: 42
EXTT0=
EXTT1=
EXTT2=
EXTT3=
EXTT4=
EXTT5=
EXTT6=
EXTT7=
EXTT8=
EXTT9=
PLAYORDER=
